<?xml version="1.0" standalone="no"?>
<!DOCTYPE svg PUBLIC "-//W3C//DTD SVG 20010904//EN"
 "http://www.w3.org/TR/2001/REC-SVG-20010904/DTD/svg10.dtd">
<svg version="1.0" xmlns="http://www.w3.org/2000/svg"
 width="450.000000pt" height="450.000000pt" viewBox="0 0 450.000000 450.000000"
 preserveAspectRatio="xMidYMid meet">

<g transform="translate(0.000000,450.000000) scale(0.100000,-0.100000)"
fill="#000000" stroke="none">
<path d="M2111 3485 c-22 -19 -31 -37 -35 -68 -9 -64 -86 -812 -86 -831 0 -14
-23 -16 -225 -16 l-225 0 0 113 c0 120 -5 133 -52 150 -17 6 -18 27 -18 245
l0 238 40 39 c31 31 40 46 40 74 l0 34 -64 -59 -64 -59 -1 -256 -1 -257 -25
-6 c-36 -9 -45 -42 -45 -157 l0 -99 -282 0 c-390 0 -374 11 -363 -261 l8 -179
-86 0 c-124 0 -130 -9 -125 -180 4 -127 9 -131 99 -71 66 44 153 75 239 86
164 20 368 -74 459 -211 55 -84 22 -79 518 -82 243 -1 457 1 475 6 48 12 74
56 81 140 8 86 38 186 83 275 144 288 463 469 778 442 329 -28 602 -242 706
-553 16 -49 30 -99 30 -111 0 -17 6 -21 34 -21 19 0 42 -3 51 -6 15 -6 16 -1
10 42 -27 186 -154 406 -313 540 -45 37 -90 87 -116 127 l-42 66 -18 203 c-39
448 -57 621 -66 638 -28 52 -5 50 -711 50 l-657 0 -31 -25z m538 -134 c8 -14
2 -102 -19 -308 -17 -158 -30 -298 -30 -310 0 -48 -19 -53 -195 -53 -184 0
-200 5 -191 63 3 18 17 149 32 292 14 143 30 277 35 298 l10 37 174 0 c161 0
175 -1 184 -19z m679 6 c16 -19 55 -633 42 -658 -10 -18 -24 -19 -271 -19
-169 0 -267 4 -281 11 -19 10 -20 17 -13 132 17 309 35 520 46 533 16 20 461
21 477 1z m-2080 -869 c-3 -10 -43 -14 -143 -16 -123 -2 -137 -1 -125 13 17
20 274 23 268 3z m-8 -83 c-10 -12 -39 -15 -142 -15 -115 0 -129 2 -118 15 10
12 39 15 142 15 115 0 129 -2 118 -15z m4 -70 c-5 -12 -30 -15 -135 -15 -118
0 -141 4 -122 23 3 4 64 7 134 7 110 0 128 -2 123 -15z m-4 -80 c-10 -12 -39
-15 -142 -15 -115 0 -129 2 -118 15 10 12 39 15 142 15 115 0 129 -2 118 -15z"/>
<path d="M3109 2454 c-10 -13 -24 -15 -62 -10 -49 7 -117 -7 -117 -25 0 -14
-60 -41 -77 -35 -18 7 -93 -33 -93 -49 0 -18 -44 -55 -66 -55 -24 0 -74 -49
-74 -73 0 -24 -29 -67 -46 -67 -21 0 -67 -75 -60 -98 7 -21 -12 -72 -26 -72
-20 0 -39 -71 -32 -120 5 -36 2 -54 -10 -71 -19 -28 -21 -78 -3 -104 21 -30
27 -66 16 -87 -13 -24 6 -87 32 -108 10 -8 23 -36 28 -62 9 -53 34 -96 59
-105 22 -9 47 -43 48 -67 2 -23 57 -76 80 -76 22 0 64 -30 64 -46 0 -21 47
-46 103 -55 36 -6 57 -16 69 -31 15 -20 26 -23 90 -23 40 0 83 -6 95 -12 31
-18 98 -16 114 3 10 13 24 15 65 10 51 -6 114 8 114 25 0 14 60 41 77 35 17
-7 93 34 93 50 0 16 44 54 62 54 26 0 78 50 78 73 0 22 43 77 59 77 16 0 52
72 46 91 -7 20 10 60 31 72 20 12 34 75 27 123 -4 30 -1 49 11 65 19 28 20 65
3 99 -21 40 -27 72 -17 90 13 23 -7 91 -31 110 -11 9 -22 33 -25 55 -8 54 -34
104 -59 111 -24 8 -50 42 -51 68 -2 23 -57 76 -80 76 -22 0 -64 30 -64 46 0
21 -47 46 -103 55 -31 5 -58 16 -67 27 -24 30 -73 43 -110 29 -26 -10 -36 -9
-61 6 -39 22 -112 23 -130 1z m234 -347 c125 -57 228 -197 242 -330 14 -129
-36 -259 -135 -350 -84 -78 -147 -101 -275 -101 -137 0 -196 23 -286 113 -71
72 -90 106 -115 202 -52 203 81 428 285 486 75 21 215 11 284 -20z"/>
<path d="M3144 1810 c-85 -35 -60 -164 31 -164 72 0 111 84 63 138 -26 29 -63
39 -94 26z"/>
<path d="M845 1900 c-4 -7 -23 -8 -49 -5 -34 5 -45 3 -60 -14 -11 -12 -30 -21
-43 -21 -31 0 -63 -17 -63 -33 0 -7 -19 -21 -42 -32 -33 -15 -44 -27 -51 -52
-4 -18 -14 -33 -22 -33 -18 0 -39 -37 -41 -73 -1 -15 -10 -34 -20 -42 -14 -10
-18 -24 -16 -59 1 -25 -3 -48 -8 -51 -13 -8 -13 -52 0 -60 5 -3 9 -29 8 -57 0
-39 4 -54 18 -65 10 -7 19 -23 20 -36 2 -39 13 -62 36 -72 13 -6 24 -19 26
-30 5 -26 31 -55 49 -55 17 0 43 -24 43 -39 0 -12 34 -25 76 -30 6 0 21 -10
34 -21 19 -17 32 -19 67 -14 29 4 43 3 43 -5 0 -6 16 -11 35 -11 19 0 35 4 35
10 0 5 23 8 51 7 38 -1 54 2 63 16 7 9 26 19 42 21 43 6 58 14 69 39 6 12 20
23 31 25 26 4 51 29 56 57 2 11 13 24 26 30 23 10 34 33 36 72 1 13 10 29 20
36 14 11 18 26 18 65 -1 28 3 54 8 57 14 9 12 38 -5 71 -9 19 -11 32 -4 40 11
14 -4 60 -21 66 -7 2 -13 17 -14 33 -2 39 -23 75 -42 75 -8 0 -17 13 -20 30
-7 30 -23 50 -46 54 -29 6 -48 19 -48 32 0 17 -31 34 -63 34 -13 0 -32 9 -43
21 -15 17 -26 19 -60 14 -26 -3 -45 -2 -49 5 -3 5 -21 10 -40 10 -19 0 -37 -5
-40 -10z m126 -205 c104 -36 169 -130 169 -244 0 -83 -22 -133 -83 -188 -78
-71 -193 -90 -282 -46 -47 24 -104 84 -126 132 -12 28 -19 66 -19 105 0 179
171 299 341 241z"/>
<path d="M836 1498 c-22 -31 -20 -64 4 -88 27 -27 62 -25 88 3 43 46 17 107
-46 107 -21 0 -36 -7 -46 -22z"/>
</g>
</svg>
