<?xml version="1.0" standalone="no"?>
<!DOCTYPE svg PUBLIC "-//W3C//DTD SVG 20010904//EN"
 "http://www.w3.org/TR/2001/REC-SVG-20010904/DTD/svg10.dtd">
<svg version="1.0" xmlns="http://www.w3.org/2000/svg"
 width="225.000000pt" height="225.000000pt" viewBox="0 0 225.000000 225.000000"
 preserveAspectRatio="xMidYMid meet">

<g transform="translate(0.000000,225.000000) scale(0.100000,-0.100000)"
fill="#000000" stroke="none">
<path d="M918 2239 c-15 -8 -18 -25 -18 -99 l0 -88 -67 -21 c-38 -11 -98 -36
-135 -55 l-67 -34 -59 59 c-38 38 -67 59 -82 59 -33 0 -300 -267 -300 -300 0
-15 21 -44 59 -82 l59 -59 -34 -67 c-19 -37 -44 -97 -55 -134 l-21 -68 -89 0
c-77 0 -90 -2 -99 -19 -13 -26 -13 -386 0 -412 9 -17 22 -19 99 -19 l89 0 21
-67 c11 -38 36 -98 55 -135 l34 -67 -59 -59 c-35 -35 -59 -67 -59 -80 0 -31
270 -302 300 -302 15 0 45 21 82 59 l59 59 67 -34 c37 -19 97 -44 135 -55 l67
-21 0 -89 c0 -77 2 -90 19 -99 26 -13 386 -13 412 0 17 9 19 22 19 99 l0 89
68 21 c37 11 97 36 134 55 l67 34 59 -59 c34 -34 68 -59 80 -59 28 0 302 274
302 302 0 12 -25 46 -59 80 l-59 59 34 67 c19 37 44 97 55 135 l21 67 89 0
c77 0 90 2 99 19 13 26 13 386 0 412 -9 17 -22 19 -99 19 l-89 0 -21 68 c-11
37 -36 97 -55 134 l-34 67 59 59 c38 38 59 67 59 82 0 33 -267 300 -300 300
-15 0 -44 -21 -82 -59 l-59 -59 -67 34 c-37 19 -97 44 -134 55 l-68 21 0 89
c0 77 -2 90 -19 99 -26 13 -390 13 -413 -1z m352 -164 c0 -97 -6 -90 103 -120
32 -9 102 -38 155 -65 53 -28 100 -50 105 -50 5 0 35 26 68 57 l60 57 96 -97
97 -96 -57 -60 c-31 -33 -57 -63 -57 -68 0 -5 22 -52 50 -105 27 -53 56 -123
65 -155 30 -109 23 -103 120 -103 l85 0 0 -145 0 -145 -85 0 c-97 0 -90 6
-120 -103 -9 -32 -38 -102 -65 -155 -28 -53 -50 -100 -50 -105 0 -5 26 -35 57
-68 l57 -60 -97 -96 -96 -97 -60 57 c-33 31 -63 57 -68 57 -5 0 -52 -22 -105
-50 -53 -27 -123 -56 -155 -65 -109 -30 -103 -23 -103 -120 l0 -85 -145 0
-145 0 0 85 c0 97 6 90 -103 120 -32 9 -102 38 -155 65 -53 28 -100 50 -105
50 -5 0 -35 -26 -68 -57 l-60 -57 -96 97 -97 96 57 60 c31 33 57 63 57 68 0 5
-22 52 -50 105 -27 53 -56 123 -65 155 -30 109 -23 103 -120 103 l-85 0 0 145
0 145 85 0 c97 0 90 -6 120 103 9 32 38 102 65 155 28 53 50 100 50 105 0 5
-26 35 -57 68 l-57 60 97 96 96 97 60 -57 c33 -31 63 -57 68 -57 5 0 52 22
105 50 53 27 123 56 155 65 109 30 103 23 103 120 l0 85 145 0 145 0 0 -85z"/>
<path d="M1055 1618 c-99 -10 -213 -68 -288 -147 -106 -111 -152 -249 -136
-411 9 -91 31 -140 62 -140 45 0 53 23 32 101 -55 214 68 433 282 499 80 25
145 25 229 3 73 -20 99 -12 99 28 0 50 -134 82 -280 67z"/>
<path d="M1418 1481 c-20 -16 -21 -22 -10 -45 13 -29 42 -34 66 -10 19 18 19
20 6 43 -14 28 -37 32 -62 12z"/>
<path d="M1510 1330 c-8 -15 -5 -37 11 -91 65 -213 -60 -442 -278 -509 -82
-25 -154 -25 -235 0 -83 26 -96 25 -110 -6 -11 -23 -10 -29 11 -45 55 -45 241
-66 343 -39 188 50 347 231 366 416 9 91 -1 191 -27 248 -16 37 -25 46 -45 46
-15 0 -30 -8 -36 -20z"/>
<path d="M762 838 c-30 -30 -1 -75 43 -64 22 6 26 11 23 39 -2 26 -8 33 -28
35 -14 2 -31 -3 -38 -10z"/>
</g>
</svg>
